# Blender 3.1.0
# www.blender.org
mtllib wall.mtl
o corridor_wall
v -0.500000 0.000000 -0.500000
v -0.500000 0.100000 0.500000
v -0.500000 0.100000 -0.500000
v -0.500000 -0.000000 0.500000
v -0.400000 0.100000 0.500000
v -0.400000 0.000000 -0.500000
v -0.400000 0.100000 -0.500000
v -0.400000 -0.000000 0.500000
v -0.500000 0.200000 -0.500000
v -0.400000 0.200000 -0.500000
v -0.400000 0.800000 0.500000
v -0.400000 0.400000 -0.500000
v -0.400000 0.800000 -0.500000
v -0.400000 0.400000 0.500000
v -0.500000 0.200000 0.500000
v -0.500000 0.400000 0.500000
v -0.500000 0.800000 -0.500000
v -0.500000 0.400000 -0.500000
v -0.500000 0.800000 0.500000
v -0.400000 0.200000 0.500000
vn -1.0000 -0.0000 -0.0000
vn 1.0000 -0.0000 -0.0000
vn -0.0000 -0.0000 1.0000
vn -0.0000 -1.0000 -0.0000
vn -0.0000 -0.0000 -1.0000
vn -0.0000 1.0000 -0.0000
vt -19.685040 -0.000000
vt -19.685040 -19.685040
vt 19.685040 0.000000
vt 19.685040 3.937008
vt -19.685040 3.937008
vt 19.685040 3.937008
vt -19.685040 3.937008
vt 19.685040 -0.000000
vt -19.685040 -0.000000
vt -19.685040 19.685040
vt -19.685040 3.937008
vt -15.748030 3.937008
vt 19.685040 0.000000
vt -15.748030 -19.685040
vt 15.748030 0.000000
vt 15.748030 3.937008
vt 19.685040 3.937008
vt -19.685040 0.000000
vt -15.748030 -0.000000
vt -15.748030 19.685040
vt -19.685040 7.874016
vt 19.685040 7.874016
vt 19.685040 7.874016
vt 15.748030 7.874016
vt -19.685040 31.496059
vt 15.748030 19.685040
vt -15.748030 31.496059
vt 19.685040 15.748030
vt 15.748030 15.748030
vt 19.685040 31.496059
vt 15.748030 -19.685040
vt 15.748030 31.496059
vt -19.685040 15.748030
vt -15.748030 15.748030
vt 19.685040 7.874016
vt -19.685040 7.874016
vt 19.685040 15.748030
vt -19.685040 15.748030
vt -19.685040 31.496059
vt 19.685040 -19.685040
vt 19.685040 31.496059
vt -19.685040 15.748030
vt 19.685040 15.748030
vt 19.685040 31.496059
vt 19.685040 19.685040
vt -19.685040 31.496059
vt -19.685040 7.874016
vt -15.748030 7.874016
s 1
usemtl metalDark.001
f 1/1/1 2/4/1 3/7/1
f 2/4/1 1/1/1 4/8/1
f 5/11/2 6/13/2 7/17/2
f 6/13/2 5/11/2 8/18/2
f 5/12/3 4/9/3 8/19/3
f 4/9/3 5/12/3 2/5/3
f 8/20/4 1/2/4 6/14/4
f 1/2/4 8/20/4 4/10/4
f 3/6/5 6/15/5 1/3/5
f 6/15/5 3/6/5 7/16/5
usemtl metal.001
f 9/22/5 7/16/5 3/6/5
f 7/16/5 9/22/5 10/24/5
f 11/25/2 12/28/2 13/30/2
f 12/28/2 11/25/2 14/33/2
f 2/4/1 9/21/1 3/7/1
f 9/21/1 2/4/1 15/35/1
f 16/37/1 17/39/1 18/42/1
f 17/39/1 16/37/1 19/44/1
f 20/47/2 7/17/2 10/23/2
f 7/17/2 20/47/2 5/11/2
f 17/40/6 11/26/6 13/31/6
f 11/26/6 17/40/6 19/45/6
f 17/41/5 12/29/5 18/43/5
f 12/29/5 17/41/5 13/32/5
f 11/27/3 16/38/3 14/34/3
f 16/38/3 11/27/3 19/46/3
f 20/48/3 2/5/3 5/12/3
f 2/5/3 20/48/3 15/36/3
usemtl metalRed.001
f 15/35/1 18/42/1 9/21/1
f 18/42/1 15/35/1 16/37/1
f 14/33/2 10/23/2 12/28/2
f 10/23/2 14/33/2 20/47/2
f 18/43/5 10/24/5 9/22/5
f 10/24/5 18/43/5 12/29/5
f 14/34/3 15/36/3 20/48/3
f 15/36/3 14/34/3 16/38/3
